<?xml version="1.0" encoding="utf-8"?>
<!-- Generator: Adobe Illustrator 16.0.4, SVG Export Plug-In . SVG Version: 6.00 Build 0)  -->
<!DOCTYPE svg PUBLIC "-//W3C//DTD SVG 1.1//EN" "http://www.w3.org/Graphics/SVG/1.1/DTD/svg11.dtd">
<svg version="1.1" id="Layer_1" xmlns="http://www.w3.org/2000/svg" xmlns:xlink="http://www.w3.org/1999/xlink" x="0px" y="0px"
	 width="400px" height="200px" viewBox="0 0 400 200" enable-background="new 0 0 400 200" xml:space="preserve">
<g>
	<defs>
		<rect id="SVGID_1_" width="400" height="200"/>
	</defs>
	<clipPath id="SVGID_2_">
		<use xlink:href="#SVGID_1_"  overflow="visible"/>
	</clipPath>
	<g clip-path="url(#SVGID_2_)">
		<defs>
			<rect id="SVGID_3_" width="400" height="200"/>
		</defs>
		<clipPath id="SVGID_4_">
			<use xlink:href="#SVGID_3_"  overflow="visible"/>
		</clipPath>
		<g opacity="5.000310e-02" clip-path="url(#SVGID_4_)">
			<g>
				<defs>
					<rect id="SVGID_5_" x="56.9" y="105.4" width="282" height="67.9"/>
				</defs>
				<clipPath id="SVGID_6_">
					<use xlink:href="#SVGID_5_"  overflow="visible"/>
				</clipPath>
				<path clip-path="url(#SVGID_6_)" fill="#205081" d="M338.9,173.4c-4.3-14.5-15.5-26.1-29.8-31.1c-0.5-20.4-17.2-36.8-37.8-36.8
					c-15.2,0-28.3,9-34.3,21.9c-5-1.6-10.3-2.4-15.8-2.4c-6.4,0-12.5,1.1-18.1,3.2c-11.3-13.9-28.5-22.7-47.8-22.7
					c-28.9,0-53.2,20-59.8,46.9c-16.1,0.3-30.2,8.6-38.5,21.1H338.9z"/>
			</g>
		</g>
	</g>
	
		<line clip-path="url(#SVGID_2_)" fill="none" stroke="#205081" stroke-width="2" stroke-linejoin="round" stroke-miterlimit="10" x1="46.2" y1="171.8" x2="347.5" y2="171.8"/>
	<g clip-path="url(#SVGID_2_)">
		<defs>
			<rect id="SVGID_7_" width="400" height="200"/>
		</defs>
		<clipPath id="SVGID_8_">
			<use xlink:href="#SVGID_7_"  overflow="visible"/>
		</clipPath>
		<path clip-path="url(#SVGID_8_)" fill="#D04437" d="M326.8,171.8h-40.1v-3.1c0-7.4,6-13.3,13.3-13.3h13.4c7.4,0,13.3,6,13.3,13.3
			V171.8z"/>
		
			<path clip-path="url(#SVGID_8_)" fill="none" stroke="#205081" stroke-width="2" stroke-linejoin="round" stroke-miterlimit="10" d="
			M326.8,171.8h-40.1v-3.1c0-7.4,6-13.3,13.3-13.3h13.4c7.4,0,13.3,6,13.3,13.3V171.8z"/>
		<path clip-path="url(#SVGID_8_)" fill="#F5F5F5" d="M306.7,165L306.7,165c-4.6,0-8.3-3.7-8.3-8.3v-9.2H315v9.2
			C315,161.3,311.3,165,306.7,165"/>
		
			<path clip-path="url(#SVGID_8_)" fill="none" stroke="#205081" stroke-width="2" stroke-linejoin="round" stroke-miterlimit="10" d="
			M306.7,165L306.7,165c-4.6,0-8.3-3.7-8.3-8.3v-9.2H315v9.2C315,161.3,311.3,165,306.7,165z"/>
		<g opacity="0.1" clip-path="url(#SVGID_8_)">
			<g>
				<defs>
					<rect id="SVGID_9_" x="298.3" y="149.4" width="16.6" height="7.7"/>
				</defs>
				<clipPath id="SVGID_10_">
					<use xlink:href="#SVGID_9_"  overflow="visible"/>
				</clipPath>
				<path clip-path="url(#SVGID_10_)" fill="#205081" d="M298.3,155.6c2.6,0.9,5.4,1.4,8.3,1.4s5.7-0.5,8.3-1.4v-6.3h-16.6V155.6z"
					/>
			</g>
		</g>
		<path clip-path="url(#SVGID_8_)" fill="#F79232" d="M335.5,90.1c0.2-1.2,0.4-2.4,0.4-3.7c0-10.9-8.8-19.7-19.7-19.7
			c-6.2,0-11.7,2.9-15.3,7.3c-2-0.9-4.3-1.4-6.7-1.4c-8.3,0-15.1,6.1-16.3,14.1c-3.5,2.4-5.8,6.4-5.8,11c0,7.4,6,13.3,13.3,13.3
			c4.5,0,8.6-2.3,11-5.8c2.9-0.4,5.5-1.5,7.7-3.2c3.3,2.6,7.5,4.1,12.1,4.1c2.3,0,4.5-0.4,6.5-1.1c1.7,1.4,3.9,2.2,6.3,2.2
			c5.4,0,9.9-4.4,9.9-9.9C338.7,94.5,337.5,91.9,335.5,90.1"/>
		
			<path clip-path="url(#SVGID_8_)" fill="none" stroke="#205081" stroke-width="2" stroke-linejoin="round" stroke-miterlimit="10" d="
			M335.5,90.1c0.2-1.2,0.4-2.4,0.4-3.7c0-10.9-8.8-19.7-19.7-19.7c-6.2,0-11.7,2.9-15.3,7.3c-2-0.9-4.3-1.4-6.7-1.4
			c-8.3,0-15.1,6.1-16.3,14.1c-3.5,2.4-5.8,6.4-5.8,11c0,7.4,6,13.3,13.3,13.3c4.5,0,8.6-2.3,11-5.8c2.9-0.4,5.5-1.5,7.7-3.2
			c3.3,2.6,7.5,4.1,12.1,4.1c2.3,0,4.5-0.4,6.5-1.1c1.7,1.4,3.9,2.2,6.3,2.2c5.4,0,9.9-4.4,9.9-9.9
			C338.7,94.5,337.5,91.9,335.5,90.1z"/>
		<path clip-path="url(#SVGID_8_)" fill="#FFFFFF" d="M316.1,106.1c-7.4,0-13.9-4.1-17.3-10.2c-1,4.2-4.8,7.3-9.3,7.3
			c-3.1,0-5.9-1.5-7.6-3.7v29.7c0,13.7,11.1,24.8,24.8,24.8c13.7,0,24.8-11.1,24.8-24.8V98.6C328,103.2,322.4,106.1,316.1,106.1"/>
		
			<path clip-path="url(#SVGID_8_)" fill="none" stroke="#205081" stroke-width="2" stroke-linejoin="round" stroke-miterlimit="10" d="
			M316.1,106.1c-7.4,0-13.9-4.1-17.3-10.2c-1,4.2-4.8,7.3-9.3,7.3c-3.1,0-5.9-1.5-7.6-3.7v29.7c0,13.7,11.1,24.8,24.8,24.8
			c13.7,0,24.8-11.1,24.8-24.8V98.6C328,103.2,322.4,106.1,316.1,106.1z"/>
		<path clip-path="url(#SVGID_8_)" fill="#205081" d="M306.7,144.7c2.6,0,4.7-1.8,5.2-4.2c0.1-0.5-0.3-1-0.9-1h-8.6
			c-0.6,0-1,0.5-0.9,1C302.1,142.8,304.2,144.7,306.7,144.7"/>
		<path clip-path="url(#SVGID_8_)" fill="#FFFFFF" d="M331.6,111.8v9.7c2.7,0,4.8-2.2,4.8-4.8C336.4,114,334.2,111.8,331.6,111.8"/>
		
			<path clip-path="url(#SVGID_8_)" fill="none" stroke="#205081" stroke-width="2" stroke-linejoin="round" stroke-miterlimit="10" d="
			M331.6,111.8v9.7c2.7,0,4.8-2.2,4.8-4.8C336.4,114,334.2,111.8,331.6,111.8z"/>
		<path clip-path="url(#SVGID_8_)" fill="#FFFFFF" d="M281.9,111.8v9.7c-2.7,0-4.8-2.2-4.8-4.8C277.1,114,279.2,111.8,281.9,111.8"
			/>
		
			<path clip-path="url(#SVGID_8_)" fill="none" stroke="#205081" stroke-width="2" stroke-linejoin="round" stroke-miterlimit="10" d="
			M281.9,111.8v9.7c-2.7,0-4.8-2.2-4.8-4.8C277.1,114,279.2,111.8,281.9,111.8z"/>
		<path clip-path="url(#SVGID_8_)" fill="#FFFFFF" d="M290.5,123.8c0-2.4,1.9-4.3,4.3-4.3c2.4,0,4.3,1.9,4.3,4.3"/>
		
			<path clip-path="url(#SVGID_8_)" fill="none" stroke="#205081" stroke-width="2" stroke-linecap="round" stroke-linejoin="round" stroke-miterlimit="10" d="
			M290.5,123.8c0-2.4,1.9-4.3,4.3-4.3c2.4,0,4.3,1.9,4.3,4.3"/>
		<path clip-path="url(#SVGID_8_)" fill="#FFFFFF" d="M314.1,123.8c0-2.4,1.9-4.3,4.3-4.3c2.4,0,4.3,1.9,4.3,4.3"/>
		
			<path clip-path="url(#SVGID_8_)" fill="none" stroke="#205081" stroke-width="2" stroke-linecap="round" stroke-linejoin="round" stroke-miterlimit="10" d="
			M314.1,123.8c0-2.4,1.9-4.3,4.3-4.3c2.4,0,4.3,1.9,4.3,4.3"/>
		<polyline clip-path="url(#SVGID_8_)" fill="#FFFFFF" points="310.1,132 304.3,132 304.3,125.9 		"/>
		
			<polyline clip-path="url(#SVGID_8_)" fill="none" stroke="#205081" stroke-width="2" stroke-linecap="round" stroke-linejoin="round" stroke-miterlimit="10" points="
			310.1,132 304.3,132 304.3,125.9 		"/>
		<path clip-path="url(#SVGID_8_)" fill="#F79232" d="M297.4,114.4l-5.3,1c-0.9,0.2-1.8-0.4-1.9-1.3c-0.2-0.9,0.4-1.8,1.3-1.9l5.3-1
			c0.9-0.2,1.8,0.4,1.9,1.3C298.9,113.4,298.3,114.2,297.4,114.4"/>
		
			<path clip-path="url(#SVGID_8_)" fill="none" stroke="#205081" stroke-width="2" stroke-linejoin="round" stroke-miterlimit="10" d="
			M297.4,114.4l-5.3,1c-0.9,0.2-1.8-0.4-1.9-1.3c-0.2-0.9,0.4-1.8,1.3-1.9l5.3-1c0.9-0.2,1.8,0.4,1.9,1.3
			C298.9,113.4,298.3,114.2,297.4,114.4z"/>
		<path clip-path="url(#SVGID_8_)" fill="#F79232" d="M316.1,114.4l5.3,1c0.9,0.2,1.8-0.4,1.9-1.3c0.2-0.9-0.4-1.8-1.3-1.9l-5.3-1
			c-0.9-0.2-1.8,0.4-1.9,1.3C314.6,113.4,315.2,114.2,316.1,114.4"/>
		
			<path clip-path="url(#SVGID_8_)" fill="none" stroke="#205081" stroke-width="2" stroke-linejoin="round" stroke-miterlimit="10" d="
			M316.1,114.4l5.3,1c0.9,0.2,1.8-0.4,1.9-1.3c0.2-0.9-0.4-1.8-1.3-1.9l-5.3-1c-0.9-0.2-1.8,0.4-1.9,1.3
			C314.6,113.4,315.2,114.2,316.1,114.4z"/>
		
			<path clip-path="url(#SVGID_8_)" fill="none" stroke="#205081" stroke-width="2" stroke-linecap="round" stroke-linejoin="round" stroke-miterlimit="10" d="
			M335.8,86.4c0,10.9-8.8,19.7-19.7,19.7c-8.8,0-16.2-5.7-18.8-13.7"/>
		<g opacity="0.1" clip-path="url(#SVGID_8_)">
			<g>
				<defs>
					<rect id="SVGID_11_" x="307.5" y="66.7" width="28.3" height="39.5"/>
				</defs>
				<clipPath id="SVGID_12_">
					<use xlink:href="#SVGID_11_"  overflow="visible"/>
				</clipPath>
				<path clip-path="url(#SVGID_12_)" fill="#205081" d="M316.5,66.7c6.6,3.2,11.1,9.9,11.1,17.8c0,10.9-8.8,19.7-19.7,19.7
					c-0.1,0-0.3,0-0.4,0c2.6,1.3,5.5,2,8.6,2c10.9,0,19.7-8.8,19.7-19.7C335.8,75.6,327.2,66.9,316.5,66.7"/>
			</g>
		</g>
		<path clip-path="url(#SVGID_8_)" fill="#D04437" d="M298.7,153.3h-1.2c-1.7,0-3.1,1.4-3.1,3.1c0,0.6,0.1,1.1,0.4,1.6l6.4,11
			l5.6-4.2c0,0-3.7-1.6-6.2-4.9C298.1,156.6,298.7,153.3,298.7,153.3"/>
		
			<path clip-path="url(#SVGID_8_)" fill="none" stroke="#205081" stroke-width="2" stroke-linejoin="round" stroke-miterlimit="10" d="
			M298.7,153.3h-1.2c-1.7,0-3.1,1.4-3.1,3.1c0,0.6,0.1,1.1,0.4,1.6l6.4,11l5.6-4.2c0,0-3.7-1.6-6.2-4.9
			C298.1,156.6,298.7,153.3,298.7,153.3z"/>
		<path clip-path="url(#SVGID_8_)" fill="#D04437" d="M314.8,153.3h1.2c1.7,0,3.1,1.4,3.1,3.1c0,0.6-0.1,1.1-0.4,1.6l-6.4,11
			l-5.6-4.2c0,0,3.7-1.6,6.2-4.9C315.4,156.6,314.8,153.3,314.8,153.3"/>
		
			<path clip-path="url(#SVGID_8_)" fill="none" stroke="#205081" stroke-width="2" stroke-linejoin="round" stroke-miterlimit="10" d="
			M314.8,153.3h1.2c1.7,0,3.1,1.4,3.1,3.1c0,0.6-0.1,1.1-0.4,1.6l-6.4,11l-5.6-4.2c0,0,3.7-1.6,6.2-4.9
			C315.4,156.6,314.8,153.3,314.8,153.3z"/>
		<rect x="76.7" y="92.1" clip-path="url(#SVGID_8_)" fill="#8F694C" width="7.2" height="25.1"/>
		
			<rect x="76.7" y="92.1" clip-path="url(#SVGID_8_)" fill="none" stroke="#205081" stroke-width="2" stroke-linejoin="round" stroke-miterlimit="10" width="7.2" height="25.1"/>
		<path clip-path="url(#SVGID_8_)" fill="#3572B0" d="M124,171.8H83.9v-3.1c0-7.4,6-13.3,13.3-13.3h13.4c7.4,0,13.3,6,13.3,13.3
			V171.8z"/>
		
			<path clip-path="url(#SVGID_8_)" fill="none" stroke="#205081" stroke-width="2" stroke-linecap="round" stroke-linejoin="round" stroke-miterlimit="10" d="
			M124,171.8H83.9v-3.1c0-7.4,6-13.3,13.3-13.3h13.4c7.4,0,13.3,6,13.3,13.3V171.8z"/>
		<path clip-path="url(#SVGID_8_)" fill="#F5F5F5" d="M104,165L104,165c-4.6,0-8.3-3.7-8.3-8.3v-9.2h16.6v9.2
			C112.3,161.3,108.6,165,104,165"/>
		
			<path clip-path="url(#SVGID_8_)" fill="none" stroke="#205081" stroke-width="2" stroke-linejoin="round" stroke-miterlimit="10" d="
			M104,165L104,165c-4.6,0-8.3-3.7-8.3-8.3v-9.2h16.6v9.2C112.3,161.3,108.6,165,104,165z"/>
		<g opacity="0.1" clip-path="url(#SVGID_8_)">
			<g>
				<defs>
					<path id="SVGID_13_" d="M95.5,149.4h16.6H95.5z"/>
				</defs>
				<clipPath id="SVGID_14_">
					<use xlink:href="#SVGID_13_"  overflow="visible"/>
				</clipPath>
				<line clip-path="url(#SVGID_14_)" fill="#205081" x1="112.1" y1="149.4" x2="95.5" y2="149.4"/>
			</g>
		</g>
		<path clip-path="url(#SVGID_8_)" fill="#FFFFFF" d="M79.1,95.6v33.7c0,13.7,11.1,24.8,24.8,24.8c13.7,0,24.8-11.1,24.8-24.8V95.6
			H79.1z"/>
		
			<path clip-path="url(#SVGID_8_)" fill="none" stroke="#205081" stroke-width="2" stroke-linejoin="round" stroke-miterlimit="10" d="
			M79.1,95.6v33.7c0,13.7,11.1,24.8,24.8,24.8c13.7,0,24.8-11.1,24.8-24.8V95.6H79.1z"/>
		<path clip-path="url(#SVGID_8_)" fill="#205081" d="M116.9,119.8c0,1.4-1.1,2.6-2.6,2.6c-1.4,0-2.6-1.1-2.6-2.6
			c0-1.4,1.1-2.6,2.6-2.6C115.7,117.2,116.9,118.4,116.9,119.8"/>
		<path clip-path="url(#SVGID_8_)" fill="#205081" d="M96.4,119.8c0,1.4-1.1,2.6-2.6,2.6c-1.4,0-2.6-1.1-2.6-2.6
			c0-1.4,1.1-2.6,2.6-2.6C95.2,117.2,96.4,118.4,96.4,119.8"/>
		<path clip-path="url(#SVGID_8_)" fill="#205081" d="M104,144.7c2.6,0,4.7-1.8,5.2-4.2c0.1-0.5-0.3-1-0.9-1h-8.6
			c-0.6,0-1,0.5-0.9,1C99.3,142.8,101.4,144.7,104,144.7"/>
		<g opacity="0.1" clip-path="url(#SVGID_8_)">
			<g>
				<defs>
					<rect id="SVGID_15_" x="100.5" y="147.9" width="6.6" height="2"/>
				</defs>
				<clipPath id="SVGID_16_">
					<use xlink:href="#SVGID_15_"  overflow="visible"/>
				</clipPath>
				
					<line clip-path="url(#SVGID_16_)" fill="none" stroke="#205081" stroke-width="2" stroke-linecap="round" stroke-linejoin="round" stroke-miterlimit="10" x1="101.5" y1="148.9" x2="106.1" y2="148.9"/>
			</g>
		</g>
		
			<path clip-path="url(#SVGID_8_)" fill="none" stroke="#205081" stroke-width="2" stroke-linecap="round" stroke-linejoin="round" stroke-miterlimit="10" d="
			M87.2,117.7L87.2,117.7c0-3.3,2.7-6.1,6.1-6.1h1.1c3.3,0,6.1,2.7,6.1,6.1v12c0,1.9,1.5,3.4,3.4,3.4c1.9,0,3.4-1.5,3.4-3.4v-12
			c0-3.3,2.7-6.1,6.1-6.1h1.1c3.3,0,6.1,2.7,6.1,6.1"/>
		
			<path clip-path="url(#SVGID_8_)" fill="none" stroke="#205081" stroke-width="2" stroke-linecap="round" stroke-linejoin="round" stroke-miterlimit="10" d="
			M100.5,129.5h-2.1c-1.1,0-2-0.9-2-2s0.9-2,2-2h2.1"/>
		
			<path clip-path="url(#SVGID_8_)" fill="none" stroke="#205081" stroke-width="2" stroke-linecap="round" stroke-linejoin="round" stroke-miterlimit="10" d="
			M107.3,125.5h2.1c1.1,0,2,0.9,2,2c0,1.1-0.9,2-2,2h-2.1"/>
		<g opacity="0.1" clip-path="url(#SVGID_8_)">
			<g>
				<defs>
					<rect id="SVGID_17_" x="91" y="133.4" width="7.3" height="14.4"/>
				</defs>
				<clipPath id="SVGID_18_">
					<use xlink:href="#SVGID_17_"  overflow="visible"/>
				</clipPath>
				
					<path clip-path="url(#SVGID_18_)" fill="none" stroke="#205081" stroke-width="2" stroke-linecap="round" stroke-linejoin="round" stroke-miterlimit="10" d="
					M92.9,146.8c-0.5-1.2-0.8-2.5-0.8-3.9c0-3.8,2.2-7,5.3-8.5"/>
			</g>
		</g>
		<g opacity="0.1" clip-path="url(#SVGID_8_)">
			<g>
				<defs>
					<rect id="SVGID_19_" x="109.4" y="133.4" width="7.3" height="14.4"/>
				</defs>
				<clipPath id="SVGID_20_">
					<use xlink:href="#SVGID_19_"  overflow="visible"/>
				</clipPath>
				
					<path clip-path="url(#SVGID_20_)" fill="none" stroke="#205081" stroke-width="2" stroke-linecap="round" stroke-linejoin="round" stroke-miterlimit="10" d="
					M114.9,146.8c0.5-1.2,0.8-2.5,0.8-3.9c0-3.8-2.2-7-5.3-8.5"/>
			</g>
		</g>
		<g opacity="0.1" clip-path="url(#SVGID_8_)">
			<g>
				<defs>
					<rect id="SVGID_21_" x="88.9" y="100.1" width="30.3" height="2"/>
				</defs>
				<clipPath id="SVGID_22_">
					<use xlink:href="#SVGID_21_"  overflow="visible"/>
				</clipPath>
				
					<line clip-path="url(#SVGID_22_)" fill="none" stroke="#205081" stroke-width="2" stroke-linecap="round" stroke-linejoin="round" stroke-miterlimit="10" x1="89.9" y1="101.1" x2="118.2" y2="101.1"/>
			</g>
		</g>
		<g opacity="0.1" clip-path="url(#SVGID_8_)">
			<g>
				<defs>
					<rect id="SVGID_23_" x="88.9" y="104.8" width="19.5" height="2"/>
				</defs>
				<clipPath id="SVGID_24_">
					<use xlink:href="#SVGID_23_"  overflow="visible"/>
				</clipPath>
				
					<line clip-path="url(#SVGID_24_)" fill="none" stroke="#205081" stroke-width="2" stroke-linecap="round" stroke-linejoin="round" stroke-miterlimit="10" x1="89.9" y1="105.8" x2="107.3" y2="105.8"/>
			</g>
		</g>
		<g opacity="0.1" clip-path="url(#SVGID_8_)">
			<g>
				<defs>
					<rect id="SVGID_25_" x="109.4" y="104.8" width="9.7" height="2"/>
				</defs>
				<clipPath id="SVGID_26_">
					<use xlink:href="#SVGID_25_"  overflow="visible"/>
				</clipPath>
				
					<line clip-path="url(#SVGID_26_)" fill="none" stroke="#205081" stroke-width="2" stroke-linecap="round" stroke-linejoin="round" stroke-miterlimit="10" x1="110.4" y1="105.8" x2="118.1" y2="105.8"/>
			</g>
		</g>
		<path clip-path="url(#SVGID_8_)" fill="#8F694C" d="M83.3,78.3L83.3,78.3c-4-3.5-10.2-0.7-10.2,4.6v5.9c0,3.8,3.1,6.8,6.8,6.8H124
			v-8.7c0-3.8-3.1-6.8-6.8-6.8H87.8C86.2,80,84.5,79.4,83.3,78.3"/>
		
			<path clip-path="url(#SVGID_8_)" fill="none" stroke="#205081" stroke-width="2" stroke-linejoin="round" stroke-miterlimit="10" d="
			M83.3,78.3L83.3,78.3c-4-3.5-10.2-0.7-10.2,4.6v5.9c0,3.8,3.1,6.8,6.8,6.8H124v-8.7c0-3.8-3.1-6.8-6.8-6.8H87.8
			C86.2,80,84.5,79.4,83.3,78.3z"/>
		<g opacity="0.1" clip-path="url(#SVGID_8_)">
			<g>
				<defs>
					<rect id="SVGID_27_" x="73.3" y="76.7" width="50.3" height="7.7"/>
				</defs>
				<clipPath id="SVGID_28_">
					<use xlink:href="#SVGID_27_"  overflow="visible"/>
				</clipPath>
				<path clip-path="url(#SVGID_28_)" fill="#205081" d="M78.9,82.7L78.9,82.7c1.3,1.1,2.9,1.7,4.5,1.7H123c0.2,0,0.4,0,0.5,0
					c-1-2.6-3.5-4.4-6.4-4.4H87.8c-1.7,0-3.3-0.6-4.5-1.7h0c-3.6-3.2-9-1.2-10,3.1C75.1,80.8,77.2,81.2,78.9,82.7"/>
			</g>
		</g>
		<path clip-path="url(#SVGID_8_)" fill="#8F694C" d="M124,95.6v2.7c0,3.1,1.4,6,3.8,7.9l1,0.9v6.8h3.8V92.3c0-3.8-3.1-6.8-6.8-6.8
			H124V95.6z"/>
		
			<path clip-path="url(#SVGID_8_)" fill="none" stroke="#205081" stroke-width="2" stroke-linejoin="round" stroke-miterlimit="10" d="
			M124,95.6v2.7c0,3.1,1.4,6,3.8,7.9l1,0.9v6.8h3.8V92.3c0-3.8-3.1-6.8-6.8-6.8H124V95.6z"/>
		<path clip-path="url(#SVGID_8_)" fill="#FFFFFF" d="M128.8,111.8v9.7c2.7,0,4.8-2.2,4.8-4.8C133.6,114,131.5,111.8,128.8,111.8"/>
		
			<path clip-path="url(#SVGID_8_)" fill="none" stroke="#205081" stroke-width="2" stroke-linejoin="round" stroke-miterlimit="10" d="
			M128.8,111.8v9.7c2.7,0,4.8-2.2,4.8-4.8C133.6,114,131.5,111.8,128.8,111.8z"/>
		<path clip-path="url(#SVGID_8_)" fill="#FFFFFF" d="M79.1,111.8v9.7c-2.7,0-4.8-2.2-4.8-4.8C74.3,114,76.5,111.8,79.1,111.8"/>
		
			<path clip-path="url(#SVGID_8_)" fill="none" stroke="#205081" stroke-width="2" stroke-linejoin="round" stroke-miterlimit="10" d="
			M79.1,111.8v9.7c-2.7,0-4.8-2.2-4.8-4.8C74.3,114,76.5,111.8,79.1,111.8z"/>
		<rect x="97.9" y="159.8" clip-path="url(#SVGID_8_)" fill="#E9E9E9" width="11.5" height="12"/>
		
			<rect x="97.9" y="159.8" clip-path="url(#SVGID_8_)" fill="none" stroke="#205081" stroke-width="2" stroke-linecap="round" stroke-linejoin="round" stroke-miterlimit="10" width="11.5" height="12"/>
		<polygon clip-path="url(#SVGID_8_)" fill="#FFFFFF" points="103.8,159.8 96.8,168.4 94.1,159.1 95.7,154.1 		"/>
		
			<polygon clip-path="url(#SVGID_8_)" fill="none" stroke="#205081" stroke-width="2" stroke-linecap="round" stroke-linejoin="round" stroke-miterlimit="10" points="
			103.8,159.8 96.8,168.4 94.1,159.1 95.7,154.1 		"/>
		<polygon clip-path="url(#SVGID_8_)" fill="#FFFFFF" points="103.8,159.8 110.8,168.4 113.5,159.1 112.3,154.1 		"/>
		
			<polygon clip-path="url(#SVGID_8_)" fill="none" stroke="#205081" stroke-width="2" stroke-linecap="round" stroke-linejoin="round" stroke-miterlimit="10" points="
			103.8,159.8 110.8,168.4 113.5,159.1 112.3,154.1 		"/>
		<polygon clip-path="url(#SVGID_8_)" fill="#D04437" points="106.8,171.8 100.5,171.8 102.2,166.3 105.1,166.3 		"/>
		
			<polygon clip-path="url(#SVGID_8_)" fill="none" stroke="#205081" stroke-width="2" stroke-linecap="round" stroke-linejoin="round" stroke-miterlimit="10" points="
			106.8,171.8 100.5,171.8 102.2,166.3 105.1,166.3 		"/>
		<polygon clip-path="url(#SVGID_8_)" fill="#D04437" points="99.7,164.9 103.7,168.7 108,164.9 103.8,159.8 		"/>
		
			<polygon clip-path="url(#SVGID_8_)" fill="none" stroke="#205081" stroke-width="2" stroke-linecap="round" stroke-linejoin="round" stroke-miterlimit="10" points="
			99.7,164.9 103.7,168.7 108,164.9 103.8,159.8 		"/>
		<g opacity="0.1" clip-path="url(#SVGID_8_)">
			<g>
				<defs>
					<rect id="SVGID_29_" x="99.7" y="159.8" width="8.3" height="6.6"/>
				</defs>
				<clipPath id="SVGID_30_">
					<use xlink:href="#SVGID_29_"  overflow="visible"/>
				</clipPath>
				<polygon clip-path="url(#SVGID_30_)" fill="#205081" points="103.8,163.1 106.4,166.3 108,164.9 103.8,159.8 99.7,164.9 
					101.2,166.3 				"/>
			</g>
		</g>
		<path clip-path="url(#SVGID_8_)" fill="#FFFFFF" d="M257.4,105H149.5c-2.2,0-4-1.8-4-4V30.4c0-2.2,1.8-4,4-4h107.9
			c2.2,0,4,1.8,4,4V101C261.4,103.2,259.6,105,257.4,105"/>
		
			<path clip-path="url(#SVGID_8_)" fill="none" stroke="#205081" stroke-width="2" stroke-linejoin="round" stroke-miterlimit="10" d="
			M257.4,105H149.5c-2.2,0-4-1.8-4-4V30.4c0-2.2,1.8-4,4-4h107.9c2.2,0,4,1.8,4,4V101C261.4,103.2,259.6,105,257.4,105z"/>
		<path clip-path="url(#SVGID_8_)" fill="#E9E9E9" d="M261.4,38H145.5v-7.5c0-2.2,1.8-4,4-4h107.9c2.2,0,4,1.8,4,4V38z"/>
		
			<path clip-path="url(#SVGID_8_)" fill="none" stroke="#205081" stroke-width="2" stroke-linejoin="round" stroke-miterlimit="10" d="
			M261.4,38H145.5v-7.5c0-2.2,1.8-4,4-4h107.9c2.2,0,4,1.8,4,4V38z"/>
		<rect x="145.5" y="38" clip-path="url(#SVGID_8_)" fill="#3572B0" width="115.9" height="9.5"/>
		
			<rect x="145.5" y="38" clip-path="url(#SVGID_8_)" fill="none" stroke="#205081" stroke-width="2" stroke-linecap="round" stroke-linejoin="round" stroke-miterlimit="10" width="115.9" height="9.5"/>
		<g opacity="0.1" clip-path="url(#SVGID_8_)">
			<g>
				<defs>
					<rect id="SVGID_31_" x="158.8" y="62.7" width="47.2" height="59.9"/>
				</defs>
				<clipPath id="SVGID_32_">
					<use xlink:href="#SVGID_31_"  overflow="visible"/>
				</clipPath>
				<polygon clip-path="url(#SVGID_32_)" fill="#205081" points="205,71.1 197.4,63.7 159.8,63.7 159.8,118.8 159.8,121.6 
					205,121.6 				"/>
				
					<polygon clip-path="url(#SVGID_32_)" fill="none" stroke="#205081" stroke-width="2" stroke-linejoin="round" stroke-miterlimit="10" points="
					205,71.1 197.4,63.7 159.8,63.7 159.8,118.8 159.8,121.6 205,121.6 				"/>
				<polygon clip-path="url(#SVGID_32_)" fill="#205081" points="204.8,71.1 197.4,71.1 197.4,63.7 				"/>
				
					<polygon clip-path="url(#SVGID_32_)" fill="none" stroke="#205081" stroke-width="2" stroke-linejoin="round" stroke-miterlimit="10" points="
					204.8,71.1 197.4,71.1 197.4,63.7 				"/>
				
					<line clip-path="url(#SVGID_32_)" fill="none" stroke="#205081" stroke-width="2" stroke-linejoin="round" stroke-miterlimit="10" x1="167" y1="79.1" x2="197.8" y2="79.1"/>
				
					<line clip-path="url(#SVGID_32_)" fill="none" stroke="#205081" stroke-width="2" stroke-linejoin="round" stroke-miterlimit="10" x1="167" y1="89.5" x2="197.8" y2="89.5"/>
				
					<line clip-path="url(#SVGID_32_)" fill="none" stroke="#205081" stroke-width="2" stroke-linejoin="round" stroke-miterlimit="10" x1="167" y1="110.3" x2="197.8" y2="110.3"/>
				
					<line clip-path="url(#SVGID_32_)" fill="none" stroke="#205081" stroke-width="2" stroke-linejoin="round" stroke-miterlimit="10" x1="167" y1="99.9" x2="197.8" y2="99.9"/>
			</g>
		</g>
		<polygon clip-path="url(#SVGID_8_)" fill="#F6C342" points="202,67.1 194.4,59.7 156.8,59.7 156.8,114.8 156.8,117.6 202,117.6 		
			"/>
		
			<polygon clip-path="url(#SVGID_8_)" fill="none" stroke="#205081" stroke-width="2" stroke-linejoin="round" stroke-miterlimit="10" points="
			202,67.1 194.4,59.7 156.8,59.7 156.8,114.8 156.8,117.6 202,117.6 		"/>
		<polygon clip-path="url(#SVGID_8_)" fill="#F6C342" points="201.8,67.1 194.4,67.1 194.4,59.7 		"/>
		
			<polygon clip-path="url(#SVGID_8_)" fill="none" stroke="#205081" stroke-width="2" stroke-linejoin="round" stroke-miterlimit="10" points="
			201.8,67.1 194.4,67.1 194.4,59.7 		"/>
		
			<line clip-path="url(#SVGID_8_)" fill="none" stroke="#205081" stroke-width="2" stroke-linejoin="round" stroke-miterlimit="10" x1="164" y1="75.1" x2="194.8" y2="75.1"/>
		
			<line clip-path="url(#SVGID_8_)" fill="none" stroke="#205081" stroke-width="2" stroke-linejoin="round" stroke-miterlimit="10" x1="164" y1="85.5" x2="194.8" y2="85.5"/>
		
			<line clip-path="url(#SVGID_8_)" fill="none" stroke="#205081" stroke-width="2" stroke-linejoin="round" stroke-miterlimit="10" x1="164" y1="106.3" x2="194.8" y2="106.3"/>
		
			<line clip-path="url(#SVGID_8_)" fill="none" stroke="#205081" stroke-width="2" stroke-linejoin="round" stroke-miterlimit="10" x1="164" y1="95.9" x2="194.8" y2="95.9"/>
		<g opacity="0.1" clip-path="url(#SVGID_8_)">
			<g>
				<defs>
					<rect id="SVGID_33_" x="215.6" y="91.6" width="37.4" height="47.3"/>
				</defs>
				<clipPath id="SVGID_34_">
					<use xlink:href="#SVGID_33_"  overflow="visible"/>
				</clipPath>
				<polygon clip-path="url(#SVGID_34_)" fill="#205081" points="216.6,92.6 252,92.6 252,135.7 252,137.9 246.1,137.9 216.6,137.9 
									"/>
				
					<polygon clip-path="url(#SVGID_34_)" fill="none" stroke="#205081" stroke-width="2" stroke-linejoin="round" stroke-miterlimit="10" points="
					216.6,92.6 252,92.6 252,135.7 252,137.9 246.1,137.9 216.6,137.9 				"/>
				<path clip-path="url(#SVGID_34_)" fill="#205081" d="M248.1,107.6c0,1.6-1.3,2.9-2.9,2.9c-1.6,0-2.9-1.3-2.9-2.9
					c0-1.6,1.3-2.9,2.9-2.9C246.9,104.8,248.1,106.1,248.1,107.6"/>
				<polyline clip-path="url(#SVGID_34_)" fill="#205081" points="222.6,120.9 225.7,115.3 228.8,114.4 232.7,109.5 236.2,113.8 
					238.5,111.7 244.7,120.9 				"/>
				
					<polyline clip-path="url(#SVGID_34_)" fill="none" stroke="#205081" stroke-width="2" stroke-linejoin="round" stroke-miterlimit="10" points="
					222.6,120.9 225.7,115.3 228.8,114.4 232.7,109.5 236.2,113.8 238.5,111.7 244.7,120.9 				"/>
				
					<line clip-path="url(#SVGID_34_)" fill="none" stroke="#205081" stroke-width="2" stroke-linejoin="round" stroke-miterlimit="10" x1="219.2" y1="120.9" x2="247.5" y2="120.9"/>
			</g>
		</g>
		<polygon clip-path="url(#SVGID_8_)" fill="#F5F5F5" points="213.6,88.6 249,88.6 249,131.7 249,133.9 243.1,133.9 213.6,133.9 		
			"/>
		
			<polygon clip-path="url(#SVGID_8_)" fill="none" stroke="#205081" stroke-width="2" stroke-linejoin="round" stroke-miterlimit="10" points="
			213.6,88.6 249,88.6 249,131.7 249,133.9 243.1,133.9 213.6,133.9 		"/>
		<path clip-path="url(#SVGID_8_)" fill="#F79232" d="M245.1,103.6c0,1.6-1.3,2.9-2.9,2.9c-1.6,0-2.9-1.3-2.9-2.9
			c0-1.6,1.3-2.9,2.9-2.9C243.9,100.8,245.1,102.1,245.1,103.6"/>
		<polyline clip-path="url(#SVGID_8_)" fill="#59AFE1" points="219.6,116.9 222.7,111.3 225.8,110.4 229.7,105.5 233.2,109.8 
			235.5,107.7 241.7,116.9 		"/>
		
			<polyline clip-path="url(#SVGID_8_)" fill="none" stroke="#205081" stroke-width="2" stroke-linejoin="round" stroke-miterlimit="10" points="
			219.6,116.9 222.7,111.3 225.8,110.4 229.7,105.5 233.2,109.8 235.5,107.7 241.7,116.9 		"/>
		
			<line clip-path="url(#SVGID_8_)" fill="none" stroke="#205081" stroke-width="2" stroke-linejoin="round" stroke-miterlimit="10" x1="216.2" y1="116.9" x2="244.5" y2="116.9"/>
		
			<line clip-path="url(#SVGID_8_)" fill="none" stroke="#205081" stroke-width="2" stroke-linejoin="round" stroke-miterlimit="10" x1="213.6" y1="63.4" x2="247.3" y2="63.4"/>
		
			<line clip-path="url(#SVGID_8_)" fill="none" stroke="#205081" stroke-width="2" stroke-linejoin="round" stroke-miterlimit="10" x1="213.6" y1="72.6" x2="247.3" y2="72.6"/>
		
			<polyline clip-path="url(#SVGID_8_)" fill="none" stroke="#205081" stroke-width="2" stroke-linejoin="round" stroke-miterlimit="10" points="
			179.4,125.9 179.4,140.6 135.7,140.6 		"/>
		
			<polyline clip-path="url(#SVGID_8_)" fill="none" stroke="#205081" stroke-width="2" stroke-linejoin="round" stroke-miterlimit="10" points="
			274,42.7 301.6,42.7 301.6,56.9 		"/>
	</g>
</g>
</svg>
